<?xml version="1.0" standalone="no"?>
<!DOCTYPE svg PUBLIC "-//W3C//DTD SVG 20010904//EN"
 "http://www.w3.org/TR/2001/REC-SVG-20010904/DTD/svg10.dtd">
<svg version="1.0" xmlns="http://www.w3.org/2000/svg"
 width="240.000000pt" height="240.000000pt" viewBox="0 0 240.000000 240.000000"
 preserveAspectRatio="xMidYMid meet">
<metadata>
Created by potrace 1.11, written by Peter Selinger 2001-2013
</metadata>
<g transform="translate(0.000000,240.000000) scale(0.100000,-0.100000)"
fill="#000000" stroke="none">
<path d="M1151 2289 c-25 -5 -63 -11 -85 -14 -23 -3 -83 -13 -135 -21 -51 -8
-110 -17 -130 -19 -83 -10 -356 -52 -356 -55 0 -1 -16 -3 -35 -4 -19 -2 -55
-7 -80 -11 -25 -4 -54 -8 -65 -9 -11 -2 -40 -6 -65 -11 -60 -11 -62 -12 -87
-13 -22 -2 -23 -4 -18 -89 3 -49 7 -110 9 -138 3 -27 7 -90 11 -140 3 -49 8
-112 10 -140 12 -152 16 -221 20 -292 3 -43 7 -114 11 -158 12 -155 13 -171
19 -275 4 -58 8 -121 10 -140 2 -19 4 -40 4 -47 1 -6 34 -28 74 -48 39 -21 99
-52 132 -70 103 -56 413 -220 676 -359 l126 -66 69 36 c38 20 130 68 204 107
74 38 169 88 210 110 41 21 116 61 165 86 50 26 149 78 220 116 72 37 133 71
138 75 10 8 16 78 42 475 12 175 15 223 20 295 3 41 8 104 10 140 2 36 7 99
10 140 3 41 8 107 10 145 2 39 6 107 10 151 l7 82 -44 7 c-23 4 -50 9 -59 10
-9 2 -40 6 -70 10 -30 4 -74 10 -99 15 -25 4 -52 8 -60 8 -8 0 -26 3 -40 6
-14 2 -41 7 -60 10 -19 3 -95 14 -168 25 -73 12 -136 20 -140 20 -4 -1 -9 0
-12 1 -10 3 -45 9 -89 15 -25 3 -54 8 -65 10 -12 3 -41 7 -66 10 -25 2 -58 7
-75 10 -16 3 -39 7 -50 9 -11 2 -40 0 -64 -5z"/>
</g>
</svg>
